<svg width="1em" height="1em" viewBox="0 0 18 18" fill="none" xmlns="http://www.w3.org/2000/svg" style="font-size: 18px;"><g clip-path="url(#Bestseller_heading_svg__a)" stroke="#4C4C4C"><path d="M5.346 12.154a.5.5 0 0 1 .5-.5h6.308a.5.5 0 0 1 .5.5v4.344a.5.5 0 0 1-.806.395l-1.838-1.425a1.5 1.5 0 0 0-1.809-.022l-2.058 1.516a.5.5 0 0 1-.797-.402v-4.406Z" fill="#fff"></path><circle cx="9" cy="7" r="5.5" fill="#fff"></circle><path d="M9.951 4.155c-.3-.921-1.603-.921-1.902 0l-.345 1.061H6.588c-.968 0-1.371 1.24-.587 1.81l.902.655-.345 1.061c-.299.922.756 1.688 1.54 1.119L9 9.205l.903.656c.784.569 1.838-.197 1.539-1.119l-.345-1.06.902-.657c.784-.569.381-1.809-.587-1.809h-1.116l-.345-1.06Z"></path></g><defs><clipPath id="Bestseller_heading_svg__a"><path fill="#fff" d="M0 0h18v18H0z"></path></clipPath></defs></svg>